<?xml version="1.0" encoding="utf-8"?>
<svg xmlns="http://www.w3.org/2000/svg" viewBox="0 0 500 500">
  <path d="M 157.985 152.14 C 157.985 149.263 160.317 146.932 163.193 146.932 C 164.666 146.932 165.997 147.544 166.943 148.525 C 167.89 147.544 169.22 146.932 170.693 146.932 C 173.57 146.932 175.902 149.263 175.902 152.14 C 175.902 154.672 174.416 157.009 172.648 158.795 C 170.874 160.586 168.709 161.931 167.14 162.452 C 167.012 162.495 166.874 162.495 166.746 162.452 C 165.177 161.931 163.013 160.586 161.239 158.795 C 159.471 157.009 157.985 154.672 157.985 152.14 Z M 163.193 148.182 C 161.007 148.182 159.235 149.954 159.235 152.14 C 159.235 154.191 160.457 156.229 162.127 157.915 C 163.711 159.515 165.603 160.701 166.943 161.197 C 168.284 160.701 170.175 159.515 171.76 157.915 C 173.429 156.229 174.652 154.191 174.652 152.14 C 174.652 149.954 172.879 148.182 170.693 148.182 C 169.355 148.182 168.172 148.845 167.454 149.864 C 167.337 150.03 167.147 150.129 166.943 150.129 C 166.74 150.129 166.549 150.03 166.432 149.864 C 165.715 148.845 164.532 148.182 163.193 148.182 Z" style="fill: rgb(21, 22, 22);"/>
</svg>