<?xml version="1.0" encoding="utf-8"?>
<svg xmlns="http://www.w3.org/2000/svg" viewBox="0 0 500 500">
  <path d="M 78.958 174.595 C 78.958 159.314 91.575 146.932 107.137 146.932 C 115.106 146.932 122.308 150.183 127.427 155.394 C 132.551 150.183 139.746 146.932 147.716 146.932 C 163.284 146.932 175.901 159.314 175.901 174.595 C 175.901 188.043 167.861 200.457 158.295 209.943 C 148.696 219.456 136.981 226.599 128.492 229.366 C 127.799 229.594 127.054 229.594 126.36 229.366 C 117.872 226.599 106.163 219.456 96.564 209.943 C 86.998 200.457 78.958 188.043 78.958 174.595 Z M 107.137 153.573 C 95.308 153.573 85.721 162.983 85.721 174.595 C 85.721 185.489 92.333 196.314 101.368 205.268 C 109.939 213.767 120.176 220.066 127.427 222.701 C 134.683 220.066 144.914 213.767 153.489 205.268 C 162.52 196.314 169.138 185.489 169.138 174.595 C 169.138 162.983 159.545 153.573 147.716 153.573 C 140.477 153.573 134.077 157.094 130.191 162.505 C 129.558 163.387 128.53 163.913 127.427 163.913 C 126.327 163.913 125.295 163.387 124.662 162.505 C 120.782 157.094 114.382 153.573 107.137 153.573 Z" style="fill: rgb(21, 22, 22);"/>
</svg>